<svg xmlns="http://www.w3.org/2000/svg" width="25" height="40"><g stroke-width="1.1" stroke-linecap="round"><path d="M12.594.323C6.021.323.55 6.013.55 12.189c0 2.778 1.564 6.308 2.694 8.746l9.306 17.872 9.262-17.872c1.13-2.438 2.738-5.791 2.738-8.746C24.55 6.014 19.167.323 12.594.323zm0 7.155a4.714 4.714 0 0 1 4.679 4.71c0 2.588-2.095 4.663-4.679 4.679-2.584-.017-4.679-2.09-4.679-4.68a4.714 4.714 0 0 1 4.679-4.71z" fill="#55d400" stroke="#338000"/><path d="M12.581 1.43c-5.944 0-10.938 5.219-10.938 10.75 0 2.359 1.443 5.832 2.563 8.25l.031.03 8.313 15.97 8.25-15.97.031-.03c1.135-2.448 2.625-5.706 2.625-8.25 0-5.538-4.931-10.75-10.875-10.75zm0 4.969c3.168.02 5.781 2.6 5.781 5.78s-2.613 5.762-5.781 5.782c-3.168-.02-5.75-2.61-5.75-5.781 0-3.172 2.582-5.761 5.75-5.781z" fill="#4a0" stroke="#55d400" stroke-opacity=".122"/></g></svg>
